/* XPM */
static const char * t1_xpm[] = {
"16 16 42 1",
" 	c #FFFFFF",
".	c #FEFEFE",
"+	c #FDFDFD",
"@	c #FCFCFC",
"#	c #F3F3F3",
"$	c #DEDEDE",
"%	c #E6E6E6",
"&	c #E5E5E5",
"*	c #C8C8C8",
"=	c #C9C9C9",
"-	c #F7F7F7",
";	c #F9F9F9",
">	c #D4D4D4",
",	c #D2D2D2",
"'	c #898989",
")	c #A0A0A0",
"!	c #A2A2A2",
"~	c #C6C6C6",
"{	c #C5C5C5",
"]	c #858585",
"^	c #D9D9D9",
"/	c #CBCBCB",
"(	c #F8F8F8",
"_	c #FAFAFA",
":	c #CDCDCD",
"<	c #646464",
"[	c #7E7E7E",
"}	c #C3C3C3",
"|	c #F5F5F5",
"1	c #FBFBFB",
"2	c #BABABA",
"3	c #EBEBEB",
"4	c #989898",
"5	c #E4E4E4",
"6	c #A1A1A1",
"7	c #E8E8E8",
"8	c #C0C0C0",
"9	c #868686",
"0	c #6B6B6B",
"a	c #F1F1F1",
"b	c #C7C7C7",
"c	c #A5A5A5",
"                ",
" .+..@@  +.     ",
".#$%&*=-;>#+.@  ",
"+,')!~{])!^%&/@ ",
" +(__@@-:<[)!*@ ",
"       @~}|__@  ",
"  1.   _!%.     ",
" 123.  -](      ",
" _45. @={@      ",
" ;67.@;{=@      ",
".76;@=89-       ",
".&!_@{0a        ",
"@bb@ @-         ",
"_c%.            ",
" _.             ",
"                "};
